<?xml version="1.0" standalone="no"?>
<!DOCTYPE svg PUBLIC "-//W3C//DTD SVG 20010904//EN"
 "http://www.w3.org/TR/2001/REC-SVG-20010904/DTD/svg10.dtd">
<svg version="1.0" xmlns="http://www.w3.org/2000/svg"
 width="512.000000pt" height="512.000000pt" viewBox="0 0 512.000000 512.000000"
 preserveAspectRatio="xMidYMid meet">

<g transform="translate(0.000000,512.000000) scale(0.100000,-0.100000)"
fill="#000000" stroke="none">
<path d="M2905 5015 l-25 -24 0 -495 0 -496 -833 -2 -833 -3 -37 -25 c-20 -14
-43 -38 -51 -55 -17 -36 -66 -275 -66 -322 0 -63 57 -134 117 -147 l28 -7 113
-1618 c62 -891 118 -1636 124 -1658 13 -51 99 -134 154 -151 60 -17 1868 -17
1928 0 55 17 141 100 154 151 6 21 61 767 124 1657 l112 1619 28 7 c62 13 118
84 118 148 0 60 -57 313 -77 340 -10 14 -36 35 -59 46 -38 19 -60 20 -382 20
l-342 0 0 495 0 496 -25 24 c-23 24 -31 25 -135 25 -104 0 -112 -1 -135 -25z
m969 -1267 c10 -51 20 -105 23 -120 l5 -28 -366 0 -367 0 -24 -25 c-33 -32
-33 -78 0 -110 24 -25 27 -25 195 -25 l170 0 0 -49 c0 -27 -3 -62 -6 -78 l-6
-30 -96 -7 c-122 -9 -205 -26 -367 -76 -180 -56 -284 -73 -425 -68 -98 4 -128
9 -205 37 -200 73 -256 84 -430 85 -92 1 -199 -5 -253 -13 -51 -8 -94 -12 -97
-10 -2 3 -7 50 -11 107 l-7 102 652 0 652 0 24 25 c33 32 33 78 0 110 l-24 25
-847 0 -846 0 5 28 c3 15 13 69 23 120 l18 92 1296 0 1296 0 18 -92z m-2424
-340 c0 -97 71 -952 81 -969 6 -11 26 -27 44 -35 33 -13 33 -14 37 -87 3 -72
2 -75 -23 -86 -14 -6 -31 -22 -37 -36 -9 -19 3 -220 54 -887 35 -475 69 -880
75 -902 15 -54 89 -131 146 -150 41 -14 136 -16 733 -16 597 0 692 2 733 16
57 19 131 96 146 151 9 33 231 2921 231 3004 0 27 3 29 40 29 38 0 40 -1 40
-31 0 -17 -49 -740 -110 -1605 -61 -866 -110 -1579 -110 -1585 0 -5 -11 -21
-25 -34 l-24 -25 -921 0 -921 0 -24 25 c-14 13 -25 29 -25 34 0 6 -49 720
-110 1586 -60 866 -110 1589 -110 1605 0 28 2 30 40 30 38 0 40 -1 40 -32z
m927 -671 c132 -98 210 -164 206 -171 -4 -6 -79 -107 -166 -223 -98 -132 -164
-210 -171 -206 -6 4 -107 79 -223 166 -132 98 -210 164 -206 171 4 6 79 107
166 223 98 132 164 210 171 206 6 -4 107 -79 223 -166z m774 51 c98 -35 179
-67 179 -72 0 -5 -28 -89 -62 -188 -47 -132 -67 -178 -78 -176 -42 8 -360 124
-360 132 0 22 126 366 134 366 5 0 89 -28 187 -62z m-191 -793 l195 -195 -198
-198 -197 -197 -197 197 -198 198 195 195 c107 107 197 195 200 195 3 0 93
-88 200 -195z m-660 -469 c0 -7 9 -96 20 -196 11 -101 19 -184 18 -186 -4 -3
-391 -44 -394 -41 -3 3 -44 390 -41 393 2 2 337 40 380 43 9 0 17 -5 17 -13z
m631 -428 c93 -44 169 -85 169 -90 0 -16 -163 -348 -171 -348 -17 0 -349 163
-349 172 0 18 164 348 172 348 6 0 86 -37 179 -82z"/>
</g>
</svg>
