<?xml version="1.0" standalone="no"?>
<!DOCTYPE svg PUBLIC "-//W3C//DTD SVG 20010904//EN"
 "http://www.w3.org/TR/2001/REC-SVG-20010904/DTD/svg10.dtd">
<svg version="1.0" xmlns="http://www.w3.org/2000/svg"
 width="512.000000pt" height="512.000000pt" viewBox="0 0 512.000000 512.000000"
 preserveAspectRatio="xMidYMid meet">

<g transform="translate(0.000000,512.000000) scale(0.100000,-0.100000)"
fill="#000000" stroke="none">
<path d="M1477 5110 c-54 -10 -120 -45 -158 -87 -15 -15 -66 -91 -113 -168
l-86 -140 720 -3 c396 -1 1044 -1 1440 0 l719 3 -85 140 c-99 163 -129 196
-204 233 l-55 27 -1065 1 c-586 1 -1086 -2 -1113 -6z"/>
<path d="M668 4580 c-20 -11 -47 -34 -60 -52 -22 -31 -23 -42 -26 -227 -2
-107 -1 -205 3 -218 9 -38 73 -102 113 -113 51 -14 3673 -14 3724 0 40 11 104
75 113 113 4 13 5 111 3 218 -3 185 -4 196 -26 227 -13 18 -41 41 -62 52 -39
20 -66 20 -1892 20 -1814 -1 -1854 -1 -1890 -20z"/>
<path d="M867 3853 c-3 -5 91 -822 209 -1818 236 -2007 214 -1865 304 -1949
93 -87 9 -81 1180 -81 1172 0 1087 -6 1181 82 89 83 68 -48 304 1952 117 993
211 1809 208 1814 -2 4 -764 7 -1693 7 -929 0 -1691 -3 -1693 -7z"/>
</g>
</svg>
