<?xml version="1.0" standalone="no"?>
<!DOCTYPE svg PUBLIC "-//W3C//DTD SVG 20010904//EN"
 "http://www.w3.org/TR/2001/REC-SVG-20010904/DTD/svg10.dtd">
<svg version="1.0" xmlns="http://www.w3.org/2000/svg"
 width="512.000000pt" height="512.000000pt" viewBox="0 0 512.000000 512.000000"
 preserveAspectRatio="xMidYMid meet">

<g transform="translate(0.000000,512.000000) scale(0.100000,-0.100000)"
fill="#000000" stroke="none">
<path d="M1896 5097 c-73 -42 -96 -127 -53 -201 17 -30 40 -49 97 -80 92 -49
187 -141 223 -216 43 -89 41 -97 -26 -124 -251 -104 -417 -344 -417 -606 0
-239 146 -474 360 -579 193 -94 387 -94 580 0 119 59 230 170 289 289 94 193
94 387 0 580 -58 118 -169 230 -287 288 -46 23 -98 44 -117 48 -27 5 -36 12
-41 33 -54 246 -199 435 -427 555 -80 42 -125 45 -181 13z"/>
<path d="M4115 4656 c-102 -34 -910 -317 -912 -320 -2 -1 12 -36 31 -77 60
-130 80 -224 80 -389 1 -121 -3 -159 -22 -230 -94 -344 -348 -598 -692 -692
-118 -32 -346 -32 -463 0 -96 26 -224 85 -308 143 -177 120 -325 333 -379 543
-11 44 -21 81 -23 82 -1 2 -306 -103 -677 -232 -519 -181 -681 -241 -703 -262
-69 -66 -55 -190 26 -234 12 -6 600 -213 1307 -459 l1285 -447 5 -449 5 -448
27 -51 c54 -103 154 -164 268 -164 114 0 214 61 268 164 l27 51 3 343 c3 309
5 343 19 338 9 -4 203 -72 431 -151 268 -94 429 -145 455 -145 61 0 160 64
331 214 164 145 350 391 445 590 137 284 195 607 161 886 -54 430 -230 815
-503 1097 -150 154 -341 295 -417 307 -19 3 -53 -1 -75 -8z m84 -765 c121 -87
70 -271 -76 -271 -138 0 -203 159 -105 253 51 49 128 57 181 18z m-600 -600
c121 -87 70 -271 -76 -271 -138 0 -203 159 -105 253 51 49 128 57 181 18z
m800 -100 c121 -87 70 -271 -76 -271 -138 0 -203 159 -105 253 51 49 128 57
181 18z m-500 -600 c121 -87 70 -271 -76 -271 -138 0 -203 159 -105 253 51 49
128 57 181 18z"/>
<path d="M2 2458 l3 -232 1180 -411 1180 -411 3 229 c1 127 1 231 -1 233 -3 4
-2357 824 -2363 824 -3 0 -3 -104 -2 -232z"/>
<path d="M5070 1983 c-161 -246 -492 -562 -692 -664 l-58 -29 0 -646 0 -645
23 6 c362 110 623 367 722 710 50 171 56 263 53 823 l-3 513 -45 -68z"/>
<path d="M0 1697 c0 -231 6 -259 60 -299 14 -10 903 -324 1975 -697 1073 -374
1958 -682 1968 -686 16 -7 17 7 15 245 l-3 252 -358 125 -358 124 -62 -31
c-100 -48 -176 -63 -297 -57 -122 6 -199 29 -289 87 -91 59 -165 141 -211 233
l-41 82 -482 168 c-265 92 -709 247 -987 343 -278 97 -601 210 -717 250 l-213
73 0 -212z"/>
<path d="M3567 1297 c-4 -146 -12 -189 -51 -277 -5 -12 42 -32 236 -99 134
-46 249 -86 256 -89 9 -3 12 46 12 227 l0 231 -27 11 c-16 6 -116 42 -224 79
l-197 68 -5 -151z"/>
</g>
</svg>
